<?xml version="1.0" standalone="no"?>
<!DOCTYPE svg PUBLIC "-//W3C//DTD SVG 20010904//EN"
 "http://www.w3.org/TR/2001/REC-SVG-20010904/DTD/svg10.dtd">
<svg version="1.0" xmlns="http://www.w3.org/2000/svg"
 width="600.000000pt" height="600.000000pt" viewBox="0 0 600.000000 600.000000"
 preserveAspectRatio="xMidYMid meet">
<metadata>
Created by potrace 1.11, written by Peter Selinger 2001-2013
</metadata>
<g transform="translate(0.000000,600.000000) scale(0.100000,-0.100000)"
fill="#000000" stroke="none">
<path d="M4335 4804 c-353 -36 -616 -153 -820 -366 -137 -141 -203 -254 -262
-444 -26 -85 -27 -99 -27 -294 -1 -225 7 -274 65 -419 78 -195 217 -350 409
-455 100 -54 274 -121 463 -177 400 -118 485 -155 583 -253 73 -73 94 -128 94
-241 0 -188 -82 -313 -244 -374 -118 -44 -302 -50 -452 -16 -94 22 -224 82
-378 174 -135 82 -203 111 -255 111 -49 0 -102 -21 -140 -55 -34 -31 -292
-430 -290 -451 0 -5 27 -31 60 -59 247 -208 639 -364 1020 -406 136 -15 355
-6 492 21 626 122 1012 607 984 1235 -12 262 -92 454 -257 616 -153 151 -319
232 -777 382 -280 91 -379 133 -466 198 -97 72 -132 146 -125 263 5 82 37 161
87 219 109 124 402 164 633 87 51 -17 156 -64 234 -105 171 -89 208 -101 275
-85 76 18 111 63 238 297 l112 208 -38 33 c-179 154 -475 284 -756 332 -113
19 -376 33 -462 24z"/>
<path d="M350 2941 l0 -1831 425 0 425 0 0 609 0 608 343 6 c237 4 375 11 450
22 273 41 502 127 678 256 81 60 201 184 252 262 120 181 187 430 187 697 0
155 -20 282 -67 423 -47 141 -117 259 -220 367 -199 210 -470 333 -858 391
-54 8 -327 13 -847 16 l-768 4 0 -1830z m1472 1175 c226 -44 370 -172 423
-381 19 -75 19 -257 0 -347 -31 -147 -121 -276 -234 -337 -120 -64 -182 -73
-513 -79 l-298 -4 0 581 0 581 274 0 c194 0 296 -4 348 -14z"/>
</g>
</svg>
